<?xml version="1.0" encoding="utf-8"?>
<!-- Generator: Adobe Illustrator 17.0.0, SVG Export Plug-In . SVG Version: 6.00 Build 0)  -->
<!DOCTYPE svg PUBLIC "-//W3C//DTD SVG 1.1//EN" "http://www.w3.org/Graphics/SVG/1.1/DTD/svg11.dtd">
<svg version="1.1" id="Layer_1" xmlns="http://www.w3.org/2000/svg" xmlns:xlink="http://www.w3.org/1999/xlink" x="0px" y="0px"
	 width="48px" height="32px" viewBox="0 0 48 32" enable-background="new 0 0 48 32" xml:space="preserve">
<g>
	<g>
		<path fill="#BD0317" d="M10.747,25.6c-0.889,0-1.616,0.72-1.616,1.6c0,0.88,0.727,1.6,1.616,1.6c0.889,0,1.616-0.72,1.616-1.6
			C12.364,26.32,11.636,25.6,10.747,25.6z M38.303,25.6c-0.889,0-1.616,0.72-1.616,1.6c0,0.88,0.727,1.6,1.616,1.6
			c0.889,0,1.616-0.72,1.616-1.6C39.919,26.32,39.192,25.6,38.303,25.6z M35.879,20h-1.616c-0.485,0-0.808,0.32-0.808,0.8
			c0,0.48,0.323,0.8,0.808,0.8h1.616c0.485,0,0.808-0.32,0.808-0.8C36.687,20.32,36.364,20,35.879,20z M46.95,18.32l-3.152-1.28
			l-2.02-8c-0.242-1.12-1.212-1.84-2.343-1.84h-4.245c1.061-3.228,1.465-6.028,1.498-6.32c0-0.24-0.081-0.4-0.162-0.64
			C36.364,0.08,36.121,0,35.879,0H6.707C6.303,0,5.98,0.24,5.98,0.64L5.515,3.2H2.586C2.101,3.2,1.778,3.52,1.778,4
			c0,0.48,0.323,0.8,0.808,0.8h2.638L4.933,6.4H2.02c-0.485,0-0.808,0.32-0.808,0.8C1.212,7.68,1.535,8,2.02,8h2.621L4.351,9.6
			H1.455c-0.485,0-0.808,0.32-0.808,0.8c0,0.48,0.323,0.8,0.808,0.8H4.06l-0.291,1.6H0.808C0.323,12.8,0,13.12,0,13.6
			s0.323,0.8,0.808,0.8h2.67l-0.407,2.24c-0.018,0.053-0.027,0.106-0.03,0.159L1.131,27.04c-0.081,0.24-0.081,0.4,0.081,0.64
			C1.374,27.92,1.616,28,1.859,28h4.109c0.388,2.263,2.388,4,4.779,4c2.391,0,4.392-1.737,4.779-4h17.997
			c0.388,2.263,2.388,4,4.779,4c2.391,0,4.392-1.737,4.779-4h3.301C47.273,28,48,27.28,48,26.4v-6.56
			C48,19.12,47.596,18.56,46.95,18.32z M5.136,14.4h9.006c0.404,0,0.727-0.32,0.727-0.8s-0.323-0.8-0.808-0.8H5.423l0.287-1.6h8.997
			c0.404,0,0.808-0.32,0.808-0.8c0-0.48-0.323-0.8-0.808-0.8H5.998L6.285,8h8.988c0.485,0,0.808-0.32,0.808-0.8
			c0-0.48-0.323-0.8-0.808-0.8h-8.7L6.86,4.8h8.979c0.485,0,0.808-0.32,0.808-0.8c0-0.48-0.323-0.8-0.808-0.8H7.147l0.287-1.6
			h27.475c-0.237,1.376-0.816,4.133-1.886,6.869c-1.323,3.343-3.529,6.988-6.884,7.476c-0.022,0.003-0.044,0.006-0.066,0.009
			c-0.047,0.006-0.093,0.012-0.14,0.017c-0.074,0.008-0.149,0.014-0.224,0.018c-0.025,0.001-0.05,0.003-0.076,0.004
			C25.547,15.997,25.461,16,25.374,16H4.849L5.136,14.4z M10.747,30.4c-1.778,0-3.232-1.44-3.232-3.2c0-1.76,1.455-3.2,3.232-3.2
			s3.232,1.44,3.232,3.2C13.98,28.96,12.525,30.4,10.747,30.4z M38.303,30.4c-1.778,0-3.232-1.44-3.232-3.2
			c0-1.76,1.455-3.2,3.232-3.2c1.778,0,3.232,1.44,3.232,3.2C41.535,28.96,40.081,30.4,38.303,30.4z M46.384,26.4h-3.302
			c-0.388-2.263-2.388-4-4.779-4c-0.013,0-0.025,0.001-0.038,0.001c-0.014,0-0.028-0.001-0.043-0.001c-2.424,0-4.364,1.76-4.768,4
			H15.527c-0.273-1.592-1.344-2.923-2.788-3.573c-0.032-0.014-0.064-0.029-0.096-0.043c-0.02-0.009-0.041-0.016-0.062-0.025
			c-0.052-0.021-0.105-0.042-0.158-0.062c-0.015-0.005-0.029-0.01-0.044-0.015c-0.059-0.021-0.119-0.042-0.179-0.06
			c-0.013-0.004-0.026-0.008-0.039-0.012c-0.061-0.018-0.123-0.036-0.186-0.052c-0.014-0.003-0.028-0.007-0.042-0.01
			c-0.061-0.015-0.123-0.03-0.186-0.043c-0.016-0.003-0.031-0.006-0.047-0.01c-0.06-0.012-0.121-0.023-0.182-0.033
			c-0.018-0.003-0.036-0.006-0.054-0.009c-0.059-0.009-0.118-0.016-0.178-0.022c-0.02-0.002-0.04-0.005-0.061-0.007
			c-0.06-0.006-0.12-0.01-0.18-0.014c-0.02-0.001-0.04-0.003-0.06-0.004c-0.079-0.004-0.159-0.006-0.24-0.006
			s-0.16,0.002-0.24,0.006c-0.02,0.001-0.039,0.003-0.059,0.004c-0.06,0.004-0.12,0.008-0.18,0.014
			c-0.02,0.002-0.04,0.005-0.06,0.007c-0.06,0.007-0.119,0.014-0.178,0.022c-0.018,0.003-0.036,0.006-0.054,0.009
			c-0.061,0.01-0.122,0.021-0.182,0.033c-0.016,0.003-0.031,0.006-0.047,0.01c-0.062,0.013-0.124,0.027-0.186,0.043
			c-0.014,0.003-0.028,0.007-0.042,0.01c-0.063,0.016-0.124,0.034-0.186,0.053c-0.013,0.004-0.026,0.008-0.039,0.012
			c-0.06,0.019-0.12,0.039-0.179,0.06c-0.015,0.005-0.029,0.01-0.044,0.015c-0.053,0.02-0.106,0.041-0.158,0.062
			c-0.02,0.008-0.041,0.016-0.061,0.025c-0.032,0.014-0.064,0.029-0.096,0.043c-1.444,0.65-2.515,1.981-2.788,3.572h-3.14l1.697-8.8
			h20.849c0.114,0,0.227-0.003,0.339-0.008c0.008,0,0.015-0.001,0.023-0.001c4.487-0.223,7.253-4.579,8.883-8.79h4.816
			c0.404,0,0.727,0.32,0.808,0.64l1.841,7.36h-3.538c-0.566,0-1.05-0.48-1.05-1.04V12c0-0.48-0.323-0.8-0.808-0.8
			c-0.485,0-0.808,0.32-0.808,0.8v3.76c0,1.44,1.212,2.64,2.666,2.64h4.283l3.556,1.36V26.4z"/>
	</g>
</g>
</svg>
