<?xml version="1.0" encoding="utf-8"?>
<!-- Generator: Adobe Illustrator 17.0.0, SVG Export Plug-In . SVG Version: 6.00 Build 0)  -->
<!DOCTYPE svg PUBLIC "-//W3C//DTD SVG 1.1//EN" "http://www.w3.org/Graphics/SVG/1.1/DTD/svg11.dtd">
<svg version="1.1" id="Layer_1" xmlns="http://www.w3.org/2000/svg" xmlns:xlink="http://www.w3.org/1999/xlink" x="0px" y="0px"
	 width="30.795px" height="31.402px" viewBox="0 0 30.795 31.402" enable-background="new 0 0 30.795 31.402" xml:space="preserve">
<g>
	<g>
		<path fill="#BD0317" d="M29.4,1.429c-1.074-1.095-2.594-1.585-4.284-1.385c-1.625,0.194-3.216,1.009-4.487,2.305
			c-0.716,0.73-1.28,1.564-1.676,2.455l-4.055-0.206c-1.016-0.049-2.02,0.347-2.751,1.092L1.285,16.763
			c-1.674,1.706-1.718,4.438-0.097,6.09l7.2,7.339c1.62,1.652,4.3,1.607,5.974-0.099L25.224,19.02
			c0.731-0.745,1.12-1.768,1.072-2.804l-0.456-9.297c-0.027-0.49-0.223-0.947-0.56-1.29c-0.337-0.343-0.785-0.543-1.266-0.57
			l-3.237-0.164c0.276-0.48,0.615-0.936,1.024-1.352c0.989-1.008,2.219-1.645,3.457-1.792c1.173-0.141,2.219,0.186,2.932,0.912
			c1.523,1.552,1.139,4.472-0.863,6.512c-0.333,0.339-0.342,0.885-0.019,1.214c0.322,0.328,0.858,0.32,1.191-0.02
			C31.165,7.65,31.567,3.638,29.4,1.429z M23.872,6.764c0.094,0.004,0.158,0.048,0.197,0.088c0.039,0.04,0.083,0.105,0.086,0.201
			l0.456,9.297c0.026,0.541-0.181,1.08-0.564,1.471L13.185,28.893l0.005,0.005c-1.009,1.028-2.616,1.055-3.593,0.06l-7.204-7.344
			c-0.976-0.995-0.95-2.634,0.059-3.662L13.314,6.879c0.383-0.391,0.913-0.602,1.443-0.575l3.673,0.187
			c-0.022,0.142-0.044,0.284-0.066,0.426c-0.196,1.723,0.285,3.272,1.359,4.367c0.322,0.328,0.858,0.32,1.191-0.02
			c0.333-0.339,0.342-0.886,0.019-1.214c-0.718-0.732-1.033-1.793-0.895-2.989c0.022-0.162,0.045-0.324,0.077-0.487L23.872,6.764z
			 M17.595,14.656l0.787-0.802c0.333-0.339,0.342-0.885,0.019-1.214c-0.322-0.328-0.858-0.32-1.191,0.02l-0.787,0.802l-0.059-0.06
			c-1.103-1.125-2.924-1.089-4.059,0.067c-1.14,1.162-1.164,3.018-0.066,4.137l1.289,1.314c0.454,0.463,0.442,1.232-0.027,1.71
			c-0.469,0.478-1.223,0.491-1.677,0.028L9.51,18.3c-0.322-0.328-0.858-0.319-1.191,0.02c-0.333,0.339-0.342,0.885-0.019,1.214
			l1.084,1.104l-0.802,0.817c-0.333,0.339-0.342,0.886-0.019,1.214c0.322,0.328,0.858,0.32,1.191-0.02l0.802-0.817l0.068,0.07
			c0.005,0.005,0.01,0.01,0.015,0.015c1.104,1.094,2.905,1.059,4.034-0.092c1.14-1.162,1.164-3.018,0.066-4.138l-1.289-1.313
			c-0.454-0.463-0.442-1.232,0.027-1.71c0.469-0.478,1.223-0.491,1.677-0.028l2.27,2.314c0.322,0.328,0.858,0.32,1.191-0.02
			c0.333-0.339,0.342-0.885,0.02-1.214L17.595,14.656z"/>
	</g>
</g>
</svg>
