<?xml version="1.0" encoding="utf-8"?>
<!-- Generator: Adobe Illustrator 17.0.0, SVG Export Plug-In . SVG Version: 6.00 Build 0)  -->
<!DOCTYPE svg PUBLIC "-//W3C//DTD SVG 1.1//EN" "http://www.w3.org/Graphics/SVG/1.1/DTD/svg11.dtd">
<svg version="1.1" id="Layer_1" xmlns="http://www.w3.org/2000/svg" xmlns:xlink="http://www.w3.org/1999/xlink" x="0px" y="0px"
	 width="32px" height="32px" viewBox="0 0 32 32" enable-background="new 0 0 32 32" xml:space="preserve">
<g>
	<g>
		<path fill="#BD0317" d="M3.583,12.749h2.738v7.561h1.955v-7.561h2.737v-1.63h-7.43V12.749z M16.938,18.672l0.528,1.638h2.084
			l-1.113-3.141L16.938,18.672z M28.306,11.12h-2.221l-1.685,2.999l-1.12-2.044l-1.37,1.371l1.367,2.185l-2.957,4.679h2.234
			l1.846-3.136l1.747,3.136h2.333l-2.989-4.757L28.306,11.12z M16,0C7.163,0,0,7.164,0,16c0,8.836,7.163,16,16,16
			c8.837,0,16-7.164,16-16C32,7.164,24.836,0,16,0z M3.058,21.466C2.326,19.736,1.955,17.897,1.955,16
			c0-1.897,0.371-3.736,1.103-5.466c0.707-1.672,1.72-3.174,3.011-4.465c1.29-1.29,2.793-2.303,4.465-3.011
			c1.73-0.732,3.569-1.103,5.466-1.103c1.897,0,3.736,0.371,5.466,1.103c1.404,0.594,2.688,1.405,3.828,2.413l-8.123,8.125
			l-0.876-2.477h-2.174l-3.073,8.601l-5.577,5.575C4.463,24.156,3.652,22.871,3.058,21.466z M15.759,15.007l-1.725,1.725
			l1.155-3.502L15.759,15.007z M25.931,25.931c-1.29,1.291-2.793,2.303-4.465,3.011c-1.73,0.732-3.569,1.103-5.466,1.103
			c-1.897,0-3.736-0.371-5.466-1.103c-1.34-0.567-2.57-1.33-3.67-2.275L26.667,6.864c0.945,1.1,1.708,2.33,2.274,3.67
			c0.732,1.73,1.103,3.569,1.103,5.466c0,1.897-0.371,3.736-1.103,5.466C28.234,23.138,27.221,24.641,25.931,25.931z"/>
	</g>
</g>
</svg>
