<?xml version="1.0" encoding="utf-8"?>
<!-- Generator: Adobe Illustrator 17.0.0, SVG Export Plug-In . SVG Version: 6.00 Build 0)  -->
<!DOCTYPE svg PUBLIC "-//W3C//DTD SVG 1.1//EN" "http://www.w3.org/Graphics/SVG/1.1/DTD/svg11.dtd">
<svg version="1.1" id="Layer_1" xmlns="http://www.w3.org/2000/svg" xmlns:xlink="http://www.w3.org/1999/xlink" x="0px" y="0px"
	 width="27px" height="31.979px" viewBox="0 0 27 31.979" enable-background="new 0 0 27 31.979" xml:space="preserve">
<g>
	<g>
		<path fill="#BD0317" d="M26.519,5.474L13.801,0.064c-0.192-0.085-0.41-0.085-0.602,0L0.48,5.474C0.186,5.599,0,5.893,0,6.213
			V18.21c0,7.587,6.055,13.768,13.5,13.768S27,25.804,27,18.21V6.213C27,5.893,26.808,5.599,26.519,5.474z M25.43,18.21
			c0,6.711-5.35,12.167-11.93,12.167c-6.58,0-11.93-5.463-11.93-12.167V6.749L13.5,1.671l11.93,5.077V18.21z M9.572,13.244v1.686
			c-0.859,0.098-1.525,0.843-1.525,1.745v4.254c0.013,0.961,0.782,1.751,1.73,1.751h7.445c0.948,0,1.717-0.784,1.717-1.751v-4.254
			c0-0.902-0.666-1.64-1.525-1.745v-1.686c0-2.202-1.756-3.999-3.921-3.999C11.334,9.245,9.572,11.035,9.572,13.244z M17.222,16.518
			c0.083,0,0.147,0.072,0.147,0.15v4.254c0,0.085-0.07,0.15-0.147,0.15H9.777c-0.083,0-0.147-0.072-0.147-0.15v-4.254
			c0-0.085,0.07-0.15,0.147-0.15H17.222z M15.851,13.25v1.673h-4.696v-1.679c-0.007-1.32,1.051-2.392,2.345-2.392
			C14.794,10.852,15.851,11.924,15.851,13.25z"/>
	</g>
</g>
</svg>
