<svg xmlns="http://www.w3.org/2000/svg" width="11" height="22" viewBox="0 0 11 22">
  <defs>
    <style>
      .cls-1 {
        fill: #004586;
        fill-rule: evenodd;
      }
    </style>
  </defs>
  <path id="info.svg" class="cls-1" d="M820.408,891a2.152,2.152,0,0,1,2.4,2.153,3.041,3.041,0,0,1-3.2,2.762,2.061,2.061,0,0,1-2.361-2.188A2.965,2.965,0,0,1,820.408,891Zm-4.931,22c-1.264,0-2.191-.718-1.306-3.876l1.452-5.6c0.252-.9.294-1.256,0-1.256a10.009,10.009,0,0,0-2.992,1.23L812,902.529c3.076-2.4,6.615-3.814,8.131-3.814,1.264,0,1.475,1.4.843,3.553l-1.662,5.887c-0.295,1.04-.168,1.4.127,1.4a6.763,6.763,0,0,0,2.844-1.329l0.717,0.9C820.008,911.921,816.742,913,815.477,913Z" transform="translate(-812 -891)"/>
</svg>
