<?xml version="1.0" encoding="utf-8"?>
<!-- Generator: Adobe Illustrator 17.0.0, SVG Export Plug-In . SVG Version: 6.00 Build 0)  -->
<!DOCTYPE svg PUBLIC "-//W3C//DTD SVG 1.1//EN" "http://www.w3.org/Graphics/SVG/1.1/DTD/svg11.dtd">
<svg version="1.1" id="Capa_1" xmlns="http://www.w3.org/2000/svg" xmlns:xlink="http://www.w3.org/1999/xlink" x="0px" y="0px"
	 width="12.568px" height="12.568px" viewBox="5.912 21.182 12.568 12.568" enable-background="new 5.912 21.182 12.568 12.568"
	 xml:space="preserve">
<g>
	<path fill="#333333" d="M18.203,32.349c-0.188,0.438-0.687,0.723-1.089,0.946c-0.527,0.286-1.063,0.455-1.66,0.455
		c-0.83,0-1.58-0.339-2.339-0.616c-0.544-0.197-1.071-0.438-1.562-0.741c-1.518-0.937-3.348-2.767-4.285-4.285
		c-0.304-0.491-0.544-1.018-0.741-1.562c-0.276-0.759-0.616-1.509-0.616-2.339c0-0.598,0.169-1.133,0.455-1.66
		c0.223-0.402,0.509-0.901,0.946-1.089c0.294-0.134,0.919-0.277,1.241-0.277c0.063,0,0.125,0,0.188,0.027
		c0.188,0.063,0.384,0.5,0.473,0.678c0.286,0.509,0.563,1.027,0.857,1.526c0.143,0.232,0.411,0.518,0.411,0.794
		c0,0.545-1.616,1.339-1.616,1.821c0,0.241,0.223,0.553,0.348,0.768c0.901,1.625,2.026,2.75,3.651,3.651
		c0.214,0.125,0.527,0.348,0.768,0.348c0.482,0,1.276-1.616,1.821-1.616c0.276,0,0.562,0.268,0.794,0.411
		c0.5,0.294,1.018,0.571,1.526,0.857c0.178,0.089,0.616,0.286,0.678,0.473c0.027,0.063,0.027,0.125,0.027,0.188
		C18.48,31.429,18.337,32.054,18.203,32.349z"/>
</g>
</svg>
