<?xml version="1.0" encoding="utf-8"?>
<!-- Generator: Adobe Illustrator 17.0.0, SVG Export Plug-In . SVG Version: 6.00 Build 0)  -->
<!DOCTYPE svg PUBLIC "-//W3C//DTD SVG 1.1//EN" "http://www.w3.org/Graphics/SVG/1.1/DTD/svg11.dtd">
<svg version="1.1" id="Capa_1" xmlns="http://www.w3.org/2000/svg" xmlns:xlink="http://www.w3.org/1999/xlink" x="0px" y="0px"
	 width="8px" height="16px" viewBox="5.912 21.818 8 16" enable-background="new 5.912 21.818 8 16" xml:space="preserve">
<path fill="#333333" d="M12.027,21.818c1.164,0,1.747,0.731,1.747,1.566c0,1.044-1.011,2.009-2.329,2.009
	c-1.103,0-1.747-0.6-1.717-1.591C9.728,22.966,10.494,21.818,12.027,21.818z M8.441,37.818c-0.919,0-1.594-0.522-0.95-2.819
	l1.056-4.073c0.184-0.652,0.214-0.913,0-0.913c-0.276,0-1.47,0.45-2.176,0.894l-0.459-0.705c2.237-1.748,4.811-2.773,5.914-2.773
	c0.919,0,1.073,1.018,0.613,2.584l-1.209,4.282c-0.215,0.757-0.122,1.017,0.092,1.017c0.276,0,1.18-0.314,2.069-0.967l0.521,0.653
	C11.736,37.033,9.361,37.818,8.441,37.818z"/>
</svg>
